<?xml version="1.0" ?><svg id="Layer_1" style="enable-background:new 0 0 65 70;" version="1.1" viewBox="0 0 65 70" xml:space="preserve" xmlns="http://www.w3.org/2000/svg" xmlns:xlink="http://www.w3.org/1999/xlink"><title/><g id="Layer_2"><g id="Layer_3"><path d="M27.1,22.6c5,0,9-4,9-9s-4-9-9-9s-9,4-9,9S22.1,22.6,27.1,22.6z M27.1,7.5c3.3,0,6,2.7,6,6s-2.7,6-6,6s-6-2.7-6-6    S23.8,7.5,27.1,7.5z"/><path d="M40.8,29.8C28.6,22.3,12.7,26,5.1,38.1l2.6,1.6c6.6-10.8,20.6-14.3,31.4-7.7s14.3,20.6,7.7,31.4c-0.1,0.1-0.2,0.3-0.3,0.4    l2.6,1.6C56.6,53.3,52.9,37.4,40.8,29.8z"/><polygon points="59.9,20.9 53.8,20.9 53.8,14.8 50.8,14.8 50.8,20.9 44.7,20.9 44.7,23.9 50.8,23.9 50.8,30 53.8,30 53.8,23.9     59.9,23.9   "/></g></g></svg>